<svg width="26" height="17" viewBox="0 0 26 17" fill="none" xmlns="http://www.w3.org/2000/svg">
<path d="M9.06889 2.15253L9.84707 3.28389C10.0259 3.58033 10.1407 4.03734 10.1963 4.61356C10.2514 5.18427 10.2429 5.8029 10.2234 6.37083L10.2231 6.38113V6.39145V6.3926V6.39376V6.39491V6.39607V6.39722V6.39837V6.39952V6.40067V6.40182V6.40297V6.40411V6.40526V6.40641V6.40755V6.40869V6.40984V6.41098V6.41212V6.41326V6.4144V6.41554V6.41667V6.41781V6.41895V6.42008V6.42122V6.42235V6.42348V6.42461V6.42574V6.42687V6.428V6.42913V6.43026V6.43138V6.43251V6.43363V6.43476V6.43588V6.437V6.43812V6.43924V6.44036V6.44148V6.4426V6.44372V6.44483V6.44595V6.44706V6.44818V6.44929V6.4504V6.45152V6.45263V6.45374V6.45484V6.45595V6.45706V6.45817V6.45927V6.46038V6.46148V6.46259V6.46369V6.46479V6.46589V6.46699V6.46809V6.46919V6.47029V6.47138V6.47248V6.47358V6.47467V6.47577V6.47686V6.47795V6.47904V6.48013V6.48122V6.48231V6.4834V6.48449V6.48558V6.48666V6.48775V6.48883V6.48992V6.491V6.49208V6.49317V6.49425V6.49533V6.49641V6.49749V6.49856V6.49964V6.50072V6.5018V6.50287V6.50394V6.50502V6.50609V6.50716V6.50824V6.50931V6.51038V6.51145V6.51252V6.51358V6.51465V6.51572V6.51678V6.51785V6.51891V6.51998V6.52104V6.5221V6.52316V6.52423V6.52529V6.52635V6.52741V6.52846V6.52952V6.53058V6.53163V6.53269V6.53374V6.5348V6.53585V6.53691V6.53796V6.53901V6.54006V6.54111V6.54216V6.54321V6.54426V6.5453V6.54635V6.5474V6.54844V6.54949V6.55053V6.55158V6.55262V6.55366V6.5547V6.55574V6.55679V6.55783V6.55886V6.5599V6.56094V6.56198V6.56301V6.56405V6.56509V6.56612V6.56716V6.56819V6.56922V6.57025V6.57129V6.57232V6.57335V6.57438V6.57541V6.57644V6.57746V6.57849V6.57952V6.58054V6.58157V6.58259V6.58362V6.58464V6.58567V6.58669V6.58771V6.58873V6.58975V6.59077V6.59179V6.59281V6.59383V6.59485V6.59587V6.59688V6.5979V6.59892V6.59993V6.60095V6.60196V6.60297V6.60399V6.605V6.60601V6.60702V6.60803V6.60904V6.61005V6.61106V6.61207V6.61308V6.61409V6.61509V6.6161V6.61711V6.61811V6.61912V6.62012V6.62112V6.62213V6.62313V6.62413V6.62513V6.62613V6.62714V6.62814V6.62914V6.63013V6.63113V6.63213V6.63313V6.63413V6.63512V6.63612V6.63711V6.63811V6.6391V6.6401V6.64109V6.64208V6.64308V6.64407V6.64506V6.64605V6.64704V6.64803V6.64902V6.65001V6.651V6.65199V6.65298V6.65396V6.65495V6.65594V6.65692V6.65791V6.65889V6.65988V6.66086V6.66185V6.66283V6.66381V6.66479V6.66578V6.66676V6.66774V6.66872V6.6697V6.67068V6.67166V6.67264V6.67362V6.67459V6.67557V6.67655V6.67752V6.6785V6.67948V6.68045V6.68143V6.6824V6.68338V6.68435V6.68532V6.6863V6.68727V6.68824V6.68921V6.69018V6.69115V6.69212V6.69309V6.69406V6.69503V6.696V6.69697V6.69794V6.69891V6.69987V6.70084V6.70181V6.70277V6.70374V6.7047V6.70567V6.70663V6.7076V6.70856V6.70953V6.71049V6.71145V6.71241V6.71338V6.71434V6.7153V6.71626V6.71722V6.71818V6.71914V6.7201V6.72106V6.72202V6.72298V6.72393V6.72489V6.72585V6.72681V6.72776V6.72872V6.72968V6.73063V6.73159V6.73254V6.7335V6.73445V6.73541V6.73636V6.73731V6.73827V6.73922V6.74017V6.74113V6.74208V6.74303V6.74398V6.74493V6.74588V6.74683V6.74778V6.74873V6.74968V6.75063V6.75158V6.75253V6.75348V6.75443V6.75537V6.75632V6.75727V6.75822V6.75916V6.76011V6.76106V6.762V6.76295V6.76389V6.76484V6.76578V6.76673V6.76767V6.76862V6.76956V6.7705V6.77145V6.77239V6.77333V6.77428V6.77522V6.77616V6.7771V6.77804V6.77899V6.77993V6.78087V6.78181V6.78275V6.78369V6.78463V6.78557V6.78651V6.78745V6.78839V6.78932V6.79026V6.7912V6.79214V6.79308V6.79402V6.79495V6.79589V6.79683V6.79776V6.7987V6.79964V6.80057V6.80151V6.80245V6.80338V6.80432V6.80525V6.80619V6.80712V6.80806V6.80899V6.80993V6.81086V6.8118V6.81273V6.81366V6.8146V6.81553V6.81646V6.8174V6.81833V6.81926V6.82019V6.82113V6.82206V6.82299V6.82392V6.82485V6.82579V6.82672V6.82765V6.82858V6.82951V6.83044V6.83137V6.8323V6.83323V6.83416V6.83509V6.83602V6.83695V6.83788V6.83881V6.83974V6.84067V6.8416V6.84253V6.84346V6.84439V6.84532V6.84625V6.84718V6.8481V6.84903V6.84996V6.85089V6.85182V6.85275V6.85367V6.8546V6.85553V6.85646V6.85738V6.85831V6.85924V6.86017V6.86109V6.86202V6.86295V6.86387V6.8648V6.86573V6.86665V6.86758V6.86851V6.86943V6.87036V6.87129V6.87221V6.87314V6.87406V6.87499V6.87592V6.87684V6.87777V6.87869V6.87962V6.88055V6.88147V6.8824V6.88332V6.88425V6.88517V6.8861V6.88703V6.88795V6.88888V6.8898V6.89073V6.89165V6.89258V6.8935V6.89443V6.89535V6.89628V6.8972V6.89813V6.89906V6.89998V6.90091V6.90183V6.90276V6.90368V6.90461V6.90576V6.90692V6.90808V6.90924V6.9104V6.91156V6.91272V6.91389V6.91505V6.91621V6.91738V6.91855V6.91971V6.92088V6.92205V6.92322V6.92439V6.92556V6.92674V6.92791V6.92909V6.93026V6.93144V6.93261V6.93379V6.93497V6.93615V6.93733V6.93851V6.93969V6.94087V6.94206V6.94324V6.94442V6.94561V6.9468V6.94798V6.94917V6.95036V6.95155V6.95274V6.95393V6.95512V6.95631V6.95751V6.9587V6.9599V6.96109V6.96229V6.96348V6.96468V6.96588V6.96708V6.96828V6.96948V6.97068V6.97188V6.97308V6.97429V6.97549V6.9767V6.9779V6.97911V6.98032V6.98152V6.98273V6.98394V6.98515V6.98636V6.98757V6.98878V6.98999V6.99121V6.99242V6.99363V6.99485V6.99606V6.99728V6.9985V6.99971V7.00093V7.00215V7.00337V7.00459V7.00581V7.00703V7.00825V7.00947V7.01069V7.01192V7.01314V7.01437V7.01559V7.01682V7.01804V7.01927V7.0205V7.02172V7.02295V7.02418V7.02541V7.02664V7.02787V7.0291V7.03033V7.03157V7.0328V7.03403V7.03526V7.0365V7.03773V7.03897V7.04021V7.04144V7.04268V7.04392V7.04515V7.04639V7.04763V7.04887V7.05011V7.05135V7.05259V7.05383V7.05507V7.05631V7.05756V7.0588V7.06004V7.06129V7.06253V7.06378V7.06502V7.06627V7.06751V7.06876V7.07001V7.07125V7.0725V7.07375V7.075V7.07625V7.0775V7.07875V7.08V7.08125V7.0825V7.08375V7.085V7.08625V7.08751V7.08876V7.09001V7.09127V7.09252V7.09377V7.09503V7.09628V7.09754V7.09879V7.10005V7.10131V7.10256V7.10382V7.10508V7.10634V7.10759V7.10885V7.11011V7.11137V7.11263V7.11389V7.11515V7.11641V7.11767V7.11893V7.12019V7.12145V7.12271V7.12397V7.12524V7.1265V7.12776V7.12902V7.13029V7.13155V7.13281V7.13408V7.13534V7.13661V7.13787V7.13914V7.1404V7.14167V7.14293V7.1442V7.14546V7.14673V7.14799V7.14926V7.15053V7.15179V7.15306V7.15433V7.1556V7.15686V7.15813V7.1594V7.16067V7.16194V7.1632V7.16447V7.16574V7.16701V7.16828V7.16955V7.17082V7.17209V7.17336V7.17463V7.1759V7.17717V7.17844V7.17971V7.18098V7.18225V7.18352V7.18479V7.18606V7.18733V7.1886V7.18987V7.19114V7.19242V7.19369V7.19496V7.19623V7.1975V7.19877V7.20004V7.20132V7.20259V7.20386V7.20513V7.2064V7.20767V7.20895V7.21022V7.21149V7.21276V7.21404V7.21531V7.21658V7.21785V7.21912V7.2204V7.22167V7.22294V7.22421V7.22548V7.22676V7.22803V7.2293V7.23057V7.23184V7.23312V7.23439V7.23566V7.23693V7.2382V7.23948V7.24075V7.24202V7.24329V7.24456V7.24583V7.2471V7.24838V7.24965V7.25092V7.25219V7.25346V7.25473V7.256V7.25727V7.25854V7.25981V7.26108V7.26235V7.26362V7.26489V7.26616V7.26743V7.2687V7.26997V7.27124V7.27251V7.27378V7.27505V7.27632V7.27759V7.27885V7.28012V7.28139V7.28266V7.28393V7.28519V7.28646V7.28773V7.289V7.29026V7.29153V7.2928V7.29406V7.29533V7.29659V7.29786V7.29913V7.30039V7.30166V7.30292V7.30418V7.30545V7.30671V7.30798V7.30924V7.3105V7.31177V7.31303V7.31429V7.31556V7.31682V7.31808V7.31934V7.3206V7.32186V7.32312V7.32438V7.32564V7.3269V7.32816V7.32942V7.33068V7.33194V7.3332V7.33446V7.33571V7.33697V7.33823V7.33948V7.34074V7.342V7.34325V7.34451V7.34576V7.34702V7.34827V7.34953V7.35078V7.35203V7.35329V7.35454V7.35579V7.35704V7.35829V7.35954V7.36079V7.36204V7.36329V7.36454V7.36579V7.36704V7.36829V7.36954V7.37078V7.37203V7.37328V7.37452V7.37577V7.37701V7.37826V7.3795V7.38075V7.38199V7.38323V7.38448V7.38572V7.38696V7.3882V7.38944V7.39068V7.39192V7.39316V7.3944V7.39564V7.39688V7.39811V7.39935V7.40059V7.40182V7.40306V7.40429V7.40553V7.40676V7.40799V7.40923V7.41046V7.41169V7.41292V7.41415V7.41538V7.41661V7.41784V7.41907V7.4203V7.42152V7.42275V7.42398V7.4252V7.42643V7.42765V7.42887V7.4301V7.43132V7.43254V7.43376V7.43498V7.4362V7.43742V7.43864V7.43986V7.44108V7.4423V7.44351V7.44473V7.44594V7.44716V7.44837V7.44959V7.4508V7.45201V7.45322V7.45443V7.45564V7.45685V7.45806V7.45927V7.46048V7.46168V7.46289V7.46409V7.4653V7.4665V7.46771V7.46891V7.47011V7.47131V7.47251V7.47371V7.47491V7.47611V7.47731V7.4785V7.4797V7.4809V7.48209V7.48328V7.48448V7.48567V7.48686V7.48805V7.48924V7.49043V7.49162V7.49281V7.49399V7.49518V7.49637V7.49755V7.49874V7.49992V7.5011V7.50228V7.50346V7.50464V7.50582V7.507V7.50818V7.50936V7.51053V7.51171V7.51288V7.51405V7.51523V7.5164V7.51757V7.51874V7.51991V7.52108V7.52224V7.52341V7.52458V7.52574V7.52691V7.52807V7.52923V7.53039V7.53155V7.53271V7.53387V7.53503V7.53619V7.54687L10.2234 7.55754C10.2436 8.12375 10.248 8.58438 10.1808 8.91747C10.128 9.17898 10.0629 9.22816 10.0359 9.23763L10.0358 9.23737C9.92824 9.25894 9.71743 9.25092 9.30216 8.84757C8.88736 8.44466 8.37938 7.75098 7.71512 6.67403C6.84959 5.20057 6.08305 3.09834 5.68939 1.9161C5.56354 1.46801 5.14112 1.2125 4.72082 1.2125H1.96498C1.71955 1.2125 1.40112 1.29844 1.18103 1.5946C1.06081 1.7358 1.01181 1.89037 0.990759 2.00643C0.970913 2.11588 0.971156 2.22385 0.971273 2.27603C0.971281 2.2797 0.971289 2.28309 0.971289 2.28618V2.3423L0.981693 2.39743C1.27702 3.96259 2.22547 6.60372 4.92983 10.671L4.93045 10.672C8.34643 15.7889 12.7078 15.9125 12.8702 15.9125H13.6576C14.6727 15.9125 15.4387 15.0766 15.4387 14.1283V12.0362V12.036C15.4387 12.0351 15.4387 12.0317 15.439 12.025C15.4393 12.0171 15.4401 12.0044 15.4419 11.9881C15.4456 11.9546 15.4529 11.9111 15.4668 11.8657C15.4919 11.7832 15.5277 11.7258 15.5734 11.6888C15.6421 11.6589 15.6978 11.6493 15.7442 11.6493C15.8625 11.6493 16.0658 11.7053 16.393 11.887C16.9605 12.2159 17.7234 12.926 18.3875 13.6166C18.712 13.9541 18.9997 14.2726 19.2105 14.5136C19.316 14.634 19.4014 14.7341 19.4619 14.8066C19.4967 14.8483 19.518 14.8746 19.5294 14.8886C19.5421 14.9043 19.5425 14.9048 19.5358 14.8947L19.5687 14.9442L19.6003 14.9758L19.8784 15.429L19.8841 15.4383L19.8901 15.4473C20.0607 15.7039 20.3531 15.9125 20.7441 15.9125H24.0117C24.4262 15.9125 24.7192 15.6837 24.8637 15.4528C25.0364 15.2139 25.1178 14.814 24.8848 14.4188C24.7996 14.2691 24.7273 14.1322 24.6466 13.9794C24.5708 13.8357 24.4875 13.678 24.3791 13.4822C24.148 13.0651 23.7144 12.5283 23.2646 12.0086C22.8812 11.5657 22.4559 11.1017 22.0764 10.6876C22.001 10.6053 21.9273 10.5249 21.8562 10.4471C21.6853 10.2603 21.5378 10.1 21.41 9.96107C21.2082 9.74178 21.0554 9.57576 20.9372 9.44243C20.778 9.2629 20.7266 9.18982 20.7136 9.17129C20.7092 9.16505 20.7092 9.16499 20.7108 9.16912C20.6842 9.10235 20.6812 9.062 20.6861 9.02024C20.6924 8.96661 20.7168 8.8749 20.7996 8.71496C20.9734 8.37908 21.3063 7.91872 21.8814 7.12344L21.8996 7.09828L21.9002 7.09739C22.9544 5.63385 23.9568 3.66183 24.0762 3.42236L24.0896 3.39563L24.1002 3.36771L24.4151 2.53876L24.4196 2.52694L24.4236 2.51494C24.4662 2.38698 24.4887 2.23799 24.4771 2.08733C24.4672 1.95861 24.4266 1.76509 24.2853 1.59654C24.0652 1.29881 23.7459 1.2125 23.4999 1.2125H20.5866C20.2842 1.2125 19.815 1.36695 19.6649 1.85106L19.2935 2.74479C18.4238 4.44744 17.2071 6.60129 16.0674 7.74406C15.6398 8.17279 15.3898 8.17226 15.296 8.14829C15.2448 8.12863 15.2004 8.08795 15.1611 8.02004C15.1441 7.99078 15.1318 7.96232 15.1238 7.94002V7.93988V7.93969V7.93949V7.93929V7.93909V7.93889V7.93869V7.93849V7.93829V7.93808V7.93788V7.93767V7.93747V7.93726V7.93706V7.93685V7.93664V7.93643V7.93622V7.93601V7.9358V7.93559V7.93537V7.93516V7.93494V7.93473V7.93451V7.93429V7.93407V7.93385V7.93363V7.93341V7.93319V7.93297V7.93274V7.93252V7.93229V7.93207V7.93184V7.93161V7.93138V7.93115V7.93092V2.20724C15.1238 1.60215 14.6202 1.2125 14.1301 1.2125H9.56324H8.42231L9.06889 2.15253Z" stroke="white" stroke-width="1.2"/>
</svg>
